# xmcd CD database file
#
# Track frame offsets:
#	150
#	15754
#	31643
#	42234
#	54880
#	74890
#	91190
#	104599
#	123053
#	141976
#	154170
#	167607
#	179794
#
# Disc length: 2612 seconds
#
# Revision: 0
# Processed by: cddbd v1.5.2PL0 Copyright (c) Steve Scherf et al.
# Submitted via: CDex 1.51
#
DISCID=a50a320d
DTITLE=mixed artists - Little Hollow Records  # 1
DYEAR=2009
DGENRE=Country
TTITLE0=Jae Christian/ T.Graham Brown - The Vanishing Breed
TTITLE1=Becky Hobbs - Time Stands Still
TTITLE2=Big Bob Young - Best Of A Bad Situation
TTITLE3=Michelle Rae - You Can Bet Your Boots
TTITLE4=Dave Lee Field - Footprints In The Sand
TTITLE5=Don Mc Natt - Ripped Up Tore Up
TTITLE6=Robert Clarkson - Ain't Ya Ever Gonna Cry
TTITLE7=Karen Mc Natt - Red Umbrella
TTITLE8=Cody Huber - Sunday Morning Coming Down
TTITLE9=Luther Lewis - Then There Was You
TTITLE10=Ken Fly - Only Two Fingers
TTITLE11=Lou Nelson - Pretty As A Woman Can Be
TTITLE12=Julie Taylor - All That You Can See In Me
EXTD=YEAR: 2009
EXTT0=
EXTT1=
EXTT2=
EXTT3=
EXTT4=
EXTT5=
EXTT6=
EXTT7=
EXTT8=
EXTT9=
EXTT10=
EXTT11=
EXTT12=
PLAYORDER=
